<svg ria-hiddaen="true" style="position: absolute; width: 0; height: 0; overflow: hidden;" version="1.1" xmlns="http://www.w3.org/2000/svg" xmlns:xlink="http://www.w3.org/1999/xlink">

    <defs>
        
        <symbol id="clock" viewBox="0 0 38 37">

            <path d="M18.8978 5.52832C16.277 5.52826 13.715 6.28901 11.5359 7.71437C9.35672 9.13973 7.65827 11.1657 6.65531 13.536C5.65234 15.9063 5.38991 18.5146 5.90119 21.0309C6.41247 23.5473 7.67449 25.8587 9.52768 27.6729C11.3809 29.487 13.742 30.7225 16.3124 31.223C18.8829 31.7235 21.5472 31.4666 23.9685 30.4848C26.3898 29.5029 28.4593 27.8402 29.9153 25.7069C31.3713 23.5737 32.1484 21.0656 32.1483 18.5C32.1444 15.0609 30.747 11.7638 28.2629 9.33195C25.7788 6.90013 22.4108 5.53222 18.8978 5.52832ZM29.9217 19.0061H31.1028C30.9831 21.8259 29.8446 24.5125 27.8901 26.5871L27.0592 25.7737C27.0112 25.7267 26.9543 25.6894 26.8916 25.664C26.8289 25.6386 26.7617 25.6255 26.6938 25.6255C26.626 25.6255 26.5588 25.6386 26.4961 25.664C26.4334 25.6894 26.3764 25.7267 26.3284 25.7737C26.2804 25.8207 26.2424 25.8764 26.2164 25.9378C26.1904 25.9992 26.1771 26.065 26.1771 26.1314C26.1771 26.1978 26.1904 26.2636 26.2164 26.325C26.2424 26.3864 26.2804 26.4421 26.3284 26.4891L27.1593 27.3025C25.0401 29.2159 22.2958 30.3304 19.4154 30.4475V29.2913C19.4154 29.1571 19.3609 29.0285 19.264 28.9336C19.1671 28.8387 19.0357 28.7854 18.8986 28.7854C18.7616 28.7854 18.6302 28.8387 18.5333 28.9336C18.4364 29.0285 18.3819 29.1571 18.3819 29.2913V30.4475C15.5015 30.3304 12.7572 29.2159 10.638 27.3025L11.4689 26.4891C11.5169 26.4421 11.5549 26.3864 11.5809 26.325C11.6069 26.2636 11.6202 26.1978 11.6202 26.1314C11.6202 26.065 11.6069 25.9992 11.5809 25.9378C11.5549 25.8764 11.5169 25.8207 11.4689 25.7737C11.4209 25.7267 11.3639 25.6894 11.3012 25.664C11.2385 25.6386 11.1713 25.6255 11.1035 25.6255C11.0356 25.6255 10.9684 25.6386 10.9057 25.664C10.843 25.6894 10.786 25.7267 10.7381 25.7737L9.90715 26.5871C7.95267 24.5125 6.81417 21.8259 6.69453 19.0061H7.87564C8.01269 19.0061 8.14412 18.9529 8.24103 18.858C8.33793 18.7631 8.39238 18.6345 8.39238 18.5003C8.39238 18.3661 8.33793 18.2375 8.24103 18.1426C8.14412 18.0477 8.01269 17.9944 7.87564 17.9944H6.69453C6.81417 15.1747 7.95267 12.4881 9.90715 10.4135L10.7381 11.2269C10.835 11.3218 10.9664 11.3751 11.1035 11.3751C11.2405 11.3751 11.372 11.3218 11.4689 11.2269C11.5658 11.132 11.6202 11.0034 11.6202 10.8692C11.6202 10.735 11.5658 10.6063 11.4689 10.5115L10.6371 9.69805C12.7563 7.78471 15.5006 6.67016 18.381 6.55305V7.7093C18.381 7.84346 18.4355 7.97213 18.5324 8.06699C18.6293 8.16186 18.7607 8.21516 18.8978 8.21516C19.0348 8.21516 19.1662 8.16186 19.2631 8.06699C19.3601 7.97213 19.4145 7.84346 19.4145 7.7093V6.55305C22.2949 6.67016 25.0392 7.78471 27.1584 9.69805L26.3275 10.5115C26.2795 10.5584 26.2415 10.6142 26.2155 10.6756C26.1895 10.737 26.1762 10.8028 26.1762 10.8692C26.1762 10.9356 26.1895 11.0014 26.2155 11.0628C26.2415 11.1242 26.2795 11.1799 26.3275 11.2269C26.3755 11.2739 26.4325 11.3111 26.4952 11.3366C26.5579 11.362 26.6251 11.3751 26.6929 11.3751C26.7608 11.3751 26.828 11.362 26.8907 11.3366C26.9534 11.3111 27.0104 11.2739 27.0583 11.2269L27.8893 10.4135C29.8437 12.4881 30.9822 15.1747 31.1019 17.9944H29.9208C29.7837 17.9944 29.6523 18.0477 29.5554 18.1426C29.4585 18.2375 29.404 18.3661 29.404 18.5003C29.404 18.6345 29.4585 18.7631 29.5554 18.858C29.6523 18.9529 29.7837 19.0061 29.9208 19.0061H29.9217Z" fill="#95E1D3"/>
            
            <path d="M24.7664 17.9944H21.5039C21.4007 17.4897 21.1472 17.0261 20.7754 16.6622C20.4036 16.2982 19.9301 16.05 19.4145 15.949V10.9482C19.4145 10.8141 19.3601 10.6854 19.2631 10.5905C19.1662 10.4957 19.0348 10.4424 18.8978 10.4424C18.7607 10.4424 18.6293 10.4957 18.5324 10.5905C18.4355 10.6854 18.381 10.8141 18.381 10.9482V15.949C17.9087 16.0405 17.4707 16.2559 17.1137 16.5722C16.7567 16.8885 16.4942 17.2937 16.3542 17.7447C16.2143 18.1957 16.2021 18.6754 16.3189 19.1326C16.4358 19.5898 16.6774 20.0074 17.0178 20.3407C17.3582 20.674 17.7848 20.9104 18.2518 21.0248C18.7189 21.1393 19.2089 21.1273 19.6696 20.9903C20.1303 20.8532 20.5442 20.5962 20.8673 20.2468C21.1904 19.8973 21.4104 19.4685 21.5039 19.0061H24.7664C24.9035 19.0061 25.0349 18.9529 25.1318 18.858C25.2287 18.7631 25.2831 18.6345 25.2831 18.5003C25.2831 18.3661 25.2287 18.2375 25.1318 18.1426C25.0349 18.0477 24.9035 17.9944 24.7664 17.9944ZM18.8978 20.0898C18.5766 20.0898 18.2626 19.9966 17.9955 19.8219C17.7284 19.6472 17.5203 19.3989 17.3974 19.1084C17.2744 18.8179 17.2423 18.4982 17.3049 18.1898C17.3676 17.8814 17.5223 17.5982 17.7494 17.3758C17.9765 17.1535 18.2659 17.002 18.5809 16.9407C18.896 16.8794 19.2225 16.9108 19.5192 17.0312C19.816 17.1515 20.0696 17.3553 20.2481 17.6167C20.4265 17.8782 20.5218 18.1856 20.5218 18.5C20.5213 18.9215 20.3501 19.3256 20.0456 19.6237C19.7411 19.9217 19.3283 20.0894 18.8978 20.0898Z" fill="#95E1D3"/>
            
            <path d="M36.9624 2.58566L35.1545 0.816022C34.623 0.296621 33.9027 0.00489722 33.1517 0.00489722C32.4008 0.00489722 31.6805 0.296621 31.149 0.816022L29.7317 2.20352C29.6837 2.25045 29.6456 2.30619 29.6196 2.36755C29.5936 2.4289 29.5802 2.49467 29.5802 2.56109C29.5802 2.62751 29.5936 2.69328 29.6196 2.75464C29.6456 2.816 29.6837 2.87173 29.7317 2.91866L31.0722 4.2313L29.0847 6.17698C26.2047 3.88739 22.6077 2.63766 18.8977 2.63766C15.1876 2.63766 11.5906 3.88739 8.71059 6.17698L6.72278 4.23101L8.06334 2.91837C8.11136 2.87144 8.14945 2.81571 8.17544 2.75435C8.20143 2.693 8.2148 2.62723 8.2148 2.5608C8.2148 2.49438 8.20143 2.42861 8.17544 2.36726C8.14945 2.3059 8.11136 2.25016 8.06334 2.20323L6.64601 0.815733C6.11454 0.296331 5.39426 0.00460815 4.64329 0.00460815C3.89232 0.00460815 3.17204 0.296331 2.64057 0.815733L0.832883 2.58566C0.302314 3.10594 0.00431824 3.81106 0.00431824 4.54623C0.00431824 5.28139 0.302314 5.98652 0.832883 6.5068L2.25021 7.8943C2.29815 7.9413 2.35509 7.97859 2.41776 8.00403C2.48044 8.02948 2.54762 8.04257 2.61547 8.04257C2.68332 8.04257 2.75051 8.02948 2.81318 8.00403C2.87586 7.97859 2.93279 7.9413 2.98073 7.8943L4.32159 6.58195L6.30939 8.52734C3.82283 11.5251 2.54215 15.3097 2.70869 19.1679C2.87523 23.0261 4.47749 26.6914 7.21353 29.4731L4.66765 35.0682C4.57251 35.2773 4.53226 35.5063 4.55057 35.7345C4.56887 35.9626 4.64515 36.1827 4.77246 36.3746C4.89977 36.5666 5.07408 36.7244 5.27953 36.8336C5.48498 36.9428 5.71507 37 5.94886 37H7.24188C7.51294 36.9998 7.77815 36.9228 8.0055 36.7783C8.23285 36.6339 8.41261 36.428 8.52309 36.1857L10.4232 32.0128C12.9717 33.5491 15.9059 34.3626 18.8988 34.3626C21.8918 34.3626 24.826 33.5491 27.3745 32.0128L29.2734 36.186C29.3839 36.4281 29.5634 36.6337 29.7906 36.7782C30.0177 36.9226 30.2826 36.9996 30.5534 37H31.8465C32.0802 37 32.3103 36.9428 32.5158 36.8336C32.7212 36.7244 32.8956 36.5666 33.0229 36.3746C33.1502 36.1827 33.2264 35.9626 33.2448 35.7345C33.2631 35.5063 33.2228 35.2773 33.1277 35.0682L30.5818 29.4731C33.3178 26.6914 34.9201 23.0261 35.0866 19.1679C35.2532 15.3097 33.9725 11.5251 31.4859 8.52734L33.4737 6.58137L34.8146 7.89372C34.8625 7.94072 34.9195 7.97801 34.9821 8.00346C35.0448 8.0289 35.112 8.04199 35.1798 8.04199C35.2477 8.04199 35.3149 8.0289 35.3776 8.00346C35.4402 7.97801 35.4972 7.94072 35.5451 7.89372L36.9624 6.50622C37.4928 5.98596 37.7907 5.28096 37.7907 4.54594C37.7907 3.81092 37.4928 3.10592 36.9624 2.58566ZM2.61547 6.82187L1.56488 5.79166C1.22805 5.4611 1.0389 5.01327 1.0389 4.54637C1.0389 4.07948 1.22805 3.63165 1.56488 3.30109L3.37168 1.53203C3.70933 1.20238 4.16673 1.01727 4.64359 1.01727C5.12045 1.01727 5.57785 1.20238 5.91549 1.53203L6.96845 2.5608L2.61547 6.82187ZM5.0524 5.86797L5.99197 4.94817L7.92663 6.84182C7.60064 7.1357 7.28735 7.44239 6.98676 7.76191L5.0524 5.86797ZM7.57879 35.7744C7.54976 35.8381 7.5025 35.8923 7.44271 35.9303C7.38292 35.9683 7.31317 35.9885 7.24188 35.9886H5.94886C5.88732 35.9886 5.82675 35.9735 5.77267 35.9448C5.71858 35.9161 5.6727 35.8745 5.63919 35.824C5.60568 35.7735 5.5856 35.7155 5.58079 35.6555C5.57599 35.5954 5.58659 35.5351 5.61165 35.4801L8.00192 30.2299C8.49244 30.6649 9.00954 31.0704 9.55036 31.4439L7.57879 35.7744ZM32.1562 35.8241C32.123 35.8749 32.0771 35.9166 32.023 35.9454C31.9688 35.9741 31.9081 35.989 31.8465 35.9886H30.5534C30.4822 35.9885 30.4124 35.9683 30.3526 35.9303C30.2928 35.8923 30.2456 35.8381 30.2165 35.7744L28.2461 31.4442C28.787 31.0706 29.3041 30.6652 29.7946 30.2302L32.1851 35.4801C32.2103 35.5352 32.2208 35.5957 32.2157 35.6558C32.2105 35.716 32.1898 35.7739 32.1556 35.8241H32.1562ZM18.8977 33.3509C15.8973 33.3509 12.9642 32.48 10.4695 30.8482C7.97472 29.2164 6.03028 26.897 4.88204 24.1834C3.7338 21.4697 3.43334 18.4837 4.01865 15.6029C4.60396 12.7221 6.04875 10.0759 8.17033 7.99895C10.2919 5.92199 12.995 4.50755 15.9377 3.9345C18.8804 3.36145 21.9307 3.65553 24.7027 4.77955C27.4747 5.90357 29.8439 7.80704 31.5109 10.2493C33.1778 12.6915 34.0675 15.5628 34.0675 18.5C34.0632 22.4373 32.4635 26.2122 29.6196 28.9963C26.7756 31.7805 22.9196 33.3465 18.8977 33.3509ZM30.8086 7.76017C30.5084 7.44105 30.1951 7.13435 29.8687 6.84009L31.8034 4.94644L32.7429 5.86623L30.8086 7.76017ZM36.2316 5.79166L35.1798 6.82187L30.8269 2.5608L31.8798 1.53203C32.2175 1.20238 32.6749 1.01727 33.1517 1.01727C33.6286 1.01727 34.086 1.20238 34.4236 1.53203L36.2304 3.30109C36.5673 3.63165 36.7564 4.07948 36.7564 4.54637C36.7564 5.01327 36.5673 5.4611 36.2304 5.79166H36.2316Z" fill="#95E1D3"/>
        
        </symbol>

         <symbol id="bar-graph" viewBox="0 0 37 37">

            <path d="M34.7418 14.7661H28.2368V34.832H26.0702V19.4921H19.5652V34.832H17.3986V15.338H10.8936V34.832H8.76315V24.0232H2.25823V34.832H0V37H37V34.832H34.7418V14.7661ZM6.59402 26.1912V28.3591H4.42743V26.1912H6.59402ZM4.42743 34.832V30.5271H6.59402V34.832H4.42743ZM15.2294 17.506V19.674H13.0628V17.506H15.2294ZM13.0628 34.832V21.8419H15.2294V34.832H13.0628ZM23.901 21.6601V23.8281H21.7344V21.6601H23.901ZM21.7344 34.832V25.996H23.901V34.832H21.7344ZM32.5726 16.9341V19.102H30.406V16.9341H32.5726ZM30.406 34.832V21.27H32.5726V34.832H30.406Z" fill="#95E1D3"/>
            <path d="M30.5108 0V2.16797H33.298L23.3087 12.1577L15.0332 3.88182L0.00750732 18.9081L1.54178 20.4406L15.0332 6.94877L23.3087 15.2246L34.8308 3.7021V6.49928H37V0L30.5108 0Z" fill="#95E1D3"/>
        
        </symbol>
        
        <symbol id="display" viewBox="0 0 37 37">

            <path d="M35.15 0.0264587H1.84999C0.828357 0.0264587 0 0.854701 0 1.87645V24.0766C0 25.0983 0.828357 25.9265 1.84999 25.9265H12.3333C14.0355 25.9285 15.4146 27.3078 15.4166 29.0099C15.4136 30.7115 14.035 32.0901 12.3333 32.0931C12.3248 32.0931 12.3179 32.0976 12.3092 32.0982C12.2645 32.1017 12.2202 32.1105 12.1773 32.1247C12.143 32.1313 12.1095 32.1407 12.0768 32.1525C12.0412 32.1719 12.0075 32.1946 11.9762 32.2201C11.9443 32.2408 11.9141 32.2642 11.8863 32.29C11.8634 32.3176 11.8426 32.3471 11.8245 32.3781C11.7981 32.4144 11.7758 32.4535 11.758 32.4946C11.758 32.5021 11.7494 32.5069 11.7469 32.515L10.5136 36.2149C10.4059 36.5382 10.5807 36.8874 10.9038 36.995C10.9671 37.0161 11.0333 37.0267 11.1 37.0265H25.9C26.2405 37.0262 26.5166 36.75 26.5162 36.4094C26.5162 36.3433 26.5056 36.2777 26.4846 36.2149L25.2514 32.515C25.2514 32.5069 25.2428 32.5021 25.2403 32.4946C25.2224 32.4536 25.2001 32.4148 25.1737 32.3787C25.1556 32.3474 25.135 32.3177 25.1119 32.29C25.0841 32.2642 25.0538 32.2408 25.0219 32.2201C24.9906 32.1946 24.9571 32.1719 24.9214 32.1525C24.8887 32.1407 24.855 32.1313 24.8208 32.1247C24.778 32.1107 24.7339 32.1017 24.6889 32.0982C24.6802 32.0982 24.6736 32.0931 24.6649 32.0931C22.9632 32.0901 21.5846 30.7115 21.5816 29.0099C21.5837 27.3078 22.9628 25.9285 24.6649 25.9265H35.15C36.1718 25.9265 37 25.0983 37 24.0766V1.87645C37 0.854701 36.1718 0.0264587 35.15 0.0264587ZM20.35 29.0099C20.3529 31.2173 22.019 33.0681 24.2141 33.3024L25.0441 35.7932H11.956L12.7861 33.3024C14.9811 33.0681 16.6471 31.2176 16.65 29.0099C16.6503 27.8485 16.1808 26.7363 15.3482 25.9265H21.6518C20.8192 26.7363 20.3497 27.8485 20.35 29.0099ZM35.7667 24.0766C35.7667 24.4171 35.4906 24.6932 35.15 24.6932H1.84999C1.50937 24.6932 1.23336 24.4171 1.23336 24.0766V22.2266H35.7667V24.0766ZM1.23336 20.9932V1.87645C1.23336 1.53583 1.50937 1.25982 1.84999 1.25982H35.15C35.4906 1.25982 35.7667 1.53583 35.7667 1.87645V20.9932H1.23336Z" fill="#95E1D3"/>
            <path d="M26.0949 9.30862L24.3195 8.71641L25.1563 7.04159C25.2749 6.80426 25.2281 6.51751 25.0404 6.33008L23.2963 4.58608C23.1089 4.3983 22.8222 4.35156 22.5848 4.47016L20.9099 5.30693L20.3178 3.5315C20.234 3.27992 19.9986 3.11013 19.7333 3.10978H17.2666C17.0013 3.1099 16.7659 3.27992 16.6821 3.5315L16.0901 5.30693L14.4152 4.47016C14.1778 4.35156 13.8912 4.3983 13.7036 4.58608L11.9597 6.33008C11.772 6.51763 11.7253 6.80426 11.8437 7.04159L12.6804 8.71641L10.9052 9.30862C10.6534 9.3924 10.4836 9.62774 10.4833 9.89311V12.3598C10.4836 12.6251 10.6534 12.8605 10.9052 12.9443L12.6804 13.5363L11.8437 15.2112C11.7253 15.4487 11.772 15.7354 11.9597 15.9229L13.7036 17.6669C13.8912 17.8546 14.1778 17.9011 14.4152 17.7828L16.0901 16.946L16.6821 18.7213C16.7659 18.973 17.0013 19.1428 17.2666 19.1432H19.7333C19.9986 19.1429 20.234 18.973 20.318 18.7213L20.91 16.946L22.5848 17.7828C22.8222 17.9011 23.1089 17.8546 23.2963 17.6669L25.0404 15.9229C25.2281 15.7352 25.2749 15.4487 25.1563 15.2112L24.3195 13.5363L26.0949 12.9443C26.3465 12.8605 26.5165 12.6251 26.5166 12.3598V9.89311C26.5165 9.62785 26.3465 9.3924 26.0949 9.30862ZM25.2833 11.9152L23.2545 12.5935C22.9314 12.7014 22.7571 13.0508 22.8649 13.3739C22.8742 13.4011 22.8851 13.4279 22.8981 13.4537L23.8545 15.3655L22.739 16.4809L20.8274 15.5246C20.5232 15.371 20.1525 15.4931 19.9989 15.797C19.9853 15.824 19.9736 15.8522 19.964 15.8809L19.2888 17.9098H17.7113L17.033 15.8809C16.9252 15.5578 16.5758 15.3836 16.2527 15.4914C16.2253 15.5007 16.1986 15.5115 16.1728 15.5246L14.2611 16.4809L13.1456 15.3655L14.102 13.4538C14.2542 13.149 14.1303 12.7787 13.8257 12.6266C13.7997 12.6139 13.773 12.6028 13.7456 12.5935L11.7168 11.9152V10.3378L13.7456 9.6594C14.0687 9.55167 14.2431 9.20228 14.1351 8.87919C14.126 8.85173 14.115 8.82509 14.102 8.79926L13.1456 6.88758L14.2611 5.77212L16.1728 6.72843C16.4776 6.88057 16.8478 6.75682 16.9999 6.45196C17.0128 6.42613 17.0239 6.39937 17.033 6.37215L17.7113 4.34326H19.2888L19.9671 6.37215C20.0743 6.69536 20.4232 6.87052 20.7465 6.76337C20.7753 6.7539 20.8033 6.74222 20.8304 6.72843L22.7422 5.77212L23.8577 6.88758L22.9012 8.79926C22.7493 9.10401 22.8729 9.47431 23.1776 9.62633C23.2036 9.63919 23.2302 9.65029 23.2577 9.65952L25.2866 10.3378L25.2833 11.9152Z" fill="#95E1D3"/>
            <path d="M18.4999 7.4265C16.4566 7.4265 14.8 9.08298 14.8 11.1265C14.8 13.1698 16.4566 14.8264 18.4999 14.8264C20.5434 14.8264 22.1999 13.1698 22.1999 11.1265C22.1979 9.08391 20.5425 7.42848 18.4999 7.4265ZM18.4999 13.5931C17.1377 13.5931 16.0333 12.4887 16.0333 11.1265C16.0333 9.7641 17.1377 8.65974 18.4999 8.65974C19.8623 8.65974 20.9666 9.7641 20.9666 11.1265C20.9666 12.4887 19.8623 13.5931 18.4999 13.5931Z" fill="#95E1D3"/>
        
        </symbol>

        <symbol id="paper" viewBox="0 0 36 31">

            <path d="M5.3195 23.524C5.1869 23.524 5.05972 23.4713 4.96595 23.3776C4.87218 23.2838 4.8195 23.1566 4.8195 23.024V4.6335C4.84197 3.4115 5.34507 2.24757 6.21977 1.39392C7.09447 0.540282 8.27032 0.0656955 9.49251 0.0730049H30.8225C30.9551 0.0730049 31.0823 0.125683 31.1761 0.219452C31.2698 0.31322 31.3225 0.440397 31.3225 0.573005C31.3225 0.705613 31.2698 0.83279 31.1761 0.926558C31.0823 1.02033 30.9551 1.073 30.8225 1.073H9.49251C8.53369 1.06675 7.61091 1.43804 6.92362 2.10662C6.23632 2.7752 5.83971 3.68738 5.8195 4.646V23.024C5.8195 23.1566 5.76683 23.2838 5.67306 23.3776C5.57929 23.4713 5.45211 23.524 5.3195 23.524Z" fill="#95E1D3"/>
            <path d="M29.771 9.42301H26.65C26.5174 9.42301 26.3902 9.37033 26.2965 9.27656C26.2027 9.18279 26.15 9.05562 26.15 8.92301C26.15 8.7904 26.2027 8.66322 26.2965 8.56945C26.3902 8.47569 26.5174 8.42301 26.65 8.42301H28.69C28.4981 8.05658 28.3855 7.65383 28.3597 7.24099C28.3339 6.82816 28.3953 6.41451 28.54 6.02701H26.65C26.5174 6.02701 26.3902 5.97433 26.2965 5.88056C26.2027 5.78679 26.15 5.65962 26.15 5.52701C26.15 5.3944 26.2027 5.26722 26.2965 5.17345C26.3902 5.07969 26.5174 5.02701 26.65 5.02701H29.331C29.4214 5.02699 29.5101 5.05147 29.5876 5.09784C29.6652 5.14421 29.7287 5.21073 29.7715 5.29033C29.8143 5.36993 29.8347 5.45964 29.8306 5.54992C29.8264 5.64019 29.7979 5.72765 29.748 5.80301C29.641 5.96701 28.7345 7.45051 30.084 8.53301C30.1648 8.59781 30.2234 8.6861 30.2519 8.78567C30.2803 8.88525 30.2772 8.9912 30.2428 9.08889C30.2084 9.18658 30.1446 9.2712 30.0601 9.33105C29.9756 9.3909 29.8746 9.42303 29.771 9.42301Z" fill="#95E1D3"/>
            <path d="M26.65 27.32C26.5174 27.32 26.3902 27.2673 26.2965 27.1736C26.2027 27.0798 26.15 26.9526 26.15 26.82V4.6335C26.15 4.50089 26.2027 4.37371 26.2965 4.27995C26.3902 4.18618 26.5174 4.1335 26.65 4.1335C26.7826 4.1335 26.9098 4.18618 27.0036 4.27995C27.0974 4.37371 27.15 4.50089 27.15 4.6335V26.82C27.15 26.9526 27.0974 27.0798 27.0036 27.1736C26.9098 27.2673 26.7826 27.32 26.65 27.32Z" fill="#95E1D3"/>
            <path d="M4.29701 30.927C3.47488 30.9269 2.67917 30.6367 2.05001 30.1075C1.95001 30.0215 1.85351 29.9355 1.76301 29.845C1.20101 29.2841 0.80463 28.579 0.617471 27.8073C0.430312 27.0357 0.459628 26.2273 0.702194 25.4713C0.94476 24.7152 1.39118 24.0407 1.99233 23.5219C2.59348 23.0032 3.32607 22.6603 4.10951 22.531C4.13627 22.5264 4.16336 22.5241 4.19051 22.524H23.2645C23.3902 22.5238 23.5113 22.571 23.6038 22.6561C23.6963 22.7413 23.7533 22.8581 23.7635 22.9834C23.7737 23.1086 23.7364 23.2332 23.6589 23.3321C23.5815 23.4311 23.4696 23.4973 23.3455 23.5175C22.744 23.6174 22.1817 23.8812 21.7204 24.2799C21.2591 24.6785 20.9166 25.1967 20.7306 25.7773C20.5445 26.358 20.5222 26.9787 20.666 27.5712C20.8097 28.1637 21.1141 28.7052 21.5455 29.136C21.616 29.207 21.6895 29.2735 21.765 29.336C22.196 29.6992 22.7367 29.9067 23.3 29.925H23.361H23.393C23.7842 29.9199 24.1696 29.8298 24.5225 29.661C25.008 29.4395 25.4195 29.0831 25.7081 28.6343C25.9966 28.1854 26.15 27.6631 26.15 27.1295C26.15 26.9969 26.2027 26.8697 26.2965 26.7759C26.3902 26.6822 26.5174 26.6295 26.65 26.6295C26.7826 26.6295 26.9098 26.6822 27.0036 26.7759C27.0973 26.8697 27.15 26.9969 27.15 27.1295C27.1514 27.8531 26.9448 28.5618 26.5548 29.1713C26.1647 29.7808 25.6077 30.2652 24.95 30.567C24.4714 30.7938 23.9496 30.9147 23.42 30.9215C23.4011 30.9237 23.3821 30.9249 23.363 30.925H4.34401C4.32851 30.9265 4.31301 30.927 4.29701 30.927ZM4.23251 23.524C3.63531 23.6306 3.07877 23.8989 2.62343 24.2998C2.16809 24.7006 1.83138 25.2187 1.64992 25.7975C1.46846 26.3764 1.44919 26.9939 1.59423 27.583C1.73926 28.1721 2.04303 28.7101 2.47251 29.1385C2.54351 29.2095 2.61951 29.2775 2.69501 29.3415C3.13256 29.7089 3.68276 29.9154 4.25401 29.9265H4.29701H20.921C20.893 29.8995 20.865 29.8725 20.8375 29.845C20.0288 29.0352 19.5743 27.9376 19.5737 26.7931C19.5732 25.6486 20.0266 24.5506 20.8345 23.74C20.909 23.6655 20.9845 23.594 21.0645 23.5255L4.23251 23.524Z" fill="#95E1D3"/>
            <path d="M30.8225 9.423H29.9C29.7674 9.423 29.6402 9.37032 29.5465 9.27655C29.4527 9.18279 29.4 9.05561 29.4 8.923C29.4 8.79039 29.4527 8.66321 29.5465 8.56945C29.6402 8.47568 29.7674 8.423 29.9 8.423H30.8215C31.5441 8.42341 32.2508 8.21079 32.8532 7.81173C33.4556 7.41266 33.927 6.84486 34.2084 6.17933C34.4899 5.5138 34.5688 4.78007 34.4355 4.06988C34.3022 3.3597 33.9624 2.70458 33.4588 2.18645C32.9551 1.66831 32.3099 1.31016 31.6038 1.15676C30.8976 1.00337 30.162 1.06154 29.4887 1.32401C28.8155 1.58648 28.2346 2.0416 27.8186 2.63246C27.4026 3.22332 27.1701 3.92369 27.15 4.646C27.1493 4.71191 27.1354 4.77701 27.1092 4.83745C27.0829 4.8979 27.0447 4.95246 26.997 4.99791C26.9493 5.04336 26.8929 5.07878 26.8312 5.10207C26.7696 5.12536 26.7039 5.13604 26.638 5.1335C26.5724 5.13188 26.5076 5.11733 26.4476 5.0907C26.3876 5.06406 26.3334 5.02585 26.2881 4.97826C26.2428 4.93067 26.2074 4.87462 26.1838 4.81332C26.1602 4.75202 26.1489 4.68667 26.1505 4.621C26.1749 3.7017 26.4698 2.81 26.9984 2.05745C27.5269 1.3049 28.2657 0.724907 29.1222 0.390035C29.9787 0.0551639 30.9149 -0.0197215 31.8137 0.174747C32.7125 0.369216 33.5341 0.824405 34.1755 1.48337C34.817 2.14234 35.2499 2.97582 35.4201 3.87956C35.5903 4.78329 35.4903 5.71715 35.1325 6.56431C34.7746 7.41148 34.175 8.13433 33.4085 8.64244C32.642 9.15055 31.7427 9.42136 30.823 9.421L30.8225 9.423Z" fill="#95E1D3"/>
            <path d="M23.768 5.4165H8.73101C8.5984 5.4165 8.47122 5.36383 8.37746 5.27006C8.28369 5.17629 8.23101 5.04911 8.23101 4.9165C8.23101 4.7839 8.28369 4.65672 8.37746 4.56295C8.47122 4.46918 8.5984 4.4165 8.73101 4.4165H23.768C23.9006 4.4165 24.0278 4.46918 24.1216 4.56295C24.2153 4.65672 24.268 4.7839 24.268 4.9165C24.268 5.04911 24.2153 5.17629 24.1216 5.27006C24.0278 5.36383 23.9006 5.4165 23.768 5.4165Z" fill="#95E1D3"/>
            <path d="M23.768 9.9295H19.75C19.6174 9.9295 19.4902 9.87683 19.3965 9.78306C19.3027 9.68929 19.25 9.56211 19.25 9.4295C19.25 9.2969 19.3027 9.16972 19.3965 9.07595C19.4902 8.98218 19.6174 8.9295 19.75 8.9295H23.768C23.9006 8.9295 24.0278 8.98218 24.1216 9.07595C24.2153 9.16972 24.268 9.2969 24.268 9.4295C24.268 9.56211 24.2153 9.68929 24.1216 9.78306C24.0278 9.87683 23.9006 9.9295 23.768 9.9295Z" fill="#95E1D3"/>
            <path d="M9.87501 9.9295H8.73101C8.5984 9.9295 8.47123 9.87683 8.37746 9.78306C8.28369 9.68929 8.23101 9.56211 8.23101 9.4295C8.23101 9.2969 8.28369 9.16972 8.37746 9.07595C8.47123 8.98218 8.5984 8.9295 8.73101 8.9295H9.87501C10.0076 8.9295 10.1348 8.98218 10.2286 9.07595C10.3223 9.16972 10.375 9.2969 10.375 9.4295C10.375 9.56211 10.3223 9.68929 10.2286 9.78306C10.1348 9.87683 10.0076 9.9295 9.87501 9.9295Z" fill="#95E1D3"/>
            <path d="M23.768 14.442H19.9585C19.8259 14.442 19.6987 14.3893 19.605 14.2956C19.5112 14.2018 19.4585 14.0746 19.4585 13.942C19.4585 13.8094 19.5112 13.6822 19.605 13.5884C19.6987 13.4947 19.8259 13.442 19.9585 13.442H23.768C23.9006 13.442 24.0278 13.4947 24.1216 13.5884C24.2154 13.6822 24.268 13.8094 24.268 13.942C24.268 14.0746 24.2154 14.2018 24.1216 14.2956C24.0278 14.3893 23.9006 14.442 23.768 14.442Z" fill="#95E1D3"/>
            <path d="M9.30301 14.442H8.73101C8.5984 14.442 8.47123 14.3893 8.37746 14.2956C8.28369 14.2018 8.23101 14.0746 8.23101 13.942C8.23101 13.8094 8.28369 13.6822 8.37746 13.5884C8.47123 13.4947 8.5984 13.442 8.73101 13.442H9.30301C9.43562 13.442 9.5628 13.4947 9.65657 13.5884C9.75034 13.6822 9.80302 13.8094 9.80302 13.942C9.80302 14.0746 9.75034 14.2018 9.65657 14.2956C9.5628 14.3893 9.43562 14.442 9.30301 14.442Z" fill="#95E1D3"/>
            <path d="M23.768 18.955H23.229C23.0964 18.955 22.9692 18.9023 22.8755 18.8086C22.7817 18.7148 22.729 18.5876 22.729 18.455C22.729 18.3224 22.7817 18.1952 22.8755 18.1014C22.9692 18.0077 23.0964 17.955 23.229 17.955H23.768C23.9006 17.955 24.0278 18.0077 24.1216 18.1014C24.2153 18.1952 24.268 18.3224 24.268 18.455C24.268 18.5876 24.2153 18.7148 24.1216 18.8086C24.0278 18.9023 23.9006 18.955 23.768 18.955Z" fill="#95E1D3"/>
            <path d="M15.479 18.955H8.72899C8.59638 18.955 8.4692 18.9023 8.37543 18.8086C8.28167 18.7148 8.22899 18.5876 8.22899 18.455C8.22899 18.3224 8.28167 18.1952 8.37543 18.1014C8.4692 18.0077 8.59638 17.955 8.72899 17.955H15.479C15.6116 17.955 15.7388 18.0077 15.8325 18.1014C15.9263 18.1952 15.979 18.3224 15.979 18.455C15.979 18.5876 15.9263 18.7148 15.8325 18.8086C15.7388 18.9023 15.6116 18.955 15.479 18.955Z" fill="#95E1D3"/>
            <path d="M14.473 16.95C13.7898 16.95 13.1172 16.7815 12.5147 16.4595C11.9122 16.1374 11.3984 15.6717 11.0188 15.1037C10.6393 14.5356 10.4057 13.8827 10.3388 13.2028C10.2719 12.5229 10.3737 11.837 10.6353 11.2059C10.8968 10.5747 11.3099 10.0178 11.8381 9.58449C12.3663 9.15116 12.9932 8.8548 13.6633 8.72165C14.3334 8.58851 15.0259 8.62268 15.6797 8.82116C16.3334 9.01963 16.9281 9.37628 17.411 9.8595C17.9922 10.4403 18.388 11.1805 18.5484 11.9864C18.7088 12.7923 18.6265 13.6277 18.312 14.3868C17.9974 15.1459 17.4648 15.7946 16.7814 16.2509C16.098 16.7071 15.2947 16.9504 14.473 16.95ZM14.473 9.6425C13.7431 9.64253 13.0358 9.89566 12.4715 10.3587C11.9073 10.8218 11.5211 11.4662 11.3788 12.1821C11.2364 12.898 11.3467 13.6412 11.6908 14.2849C12.0349 14.9286 12.5915 15.4331 13.2659 15.7124C13.9403 15.9917 14.6906 16.0285 15.3891 15.8166C16.0876 15.6047 16.691 15.1571 17.0965 14.5502C17.502 13.9433 17.6845 13.2145 17.613 12.4881C17.5414 11.7617 17.2202 11.0826 16.704 10.5665C16.4118 10.2724 16.0642 10.0391 15.6812 9.88023C15.2983 9.72136 14.8876 9.64005 14.473 9.641V9.6425Z" fill="#95E1D3"/>
            <path d="M13.4915 13.295C13.1639 13.2951 12.8463 13.1816 12.5929 12.9738C12.3396 12.766 12.1662 12.4767 12.1022 12.1554C12.0383 11.834 12.0877 11.5004 12.2422 11.2114C12.3967 10.9225 12.6466 10.696 12.9494 10.5707C13.2521 10.4453 13.5889 10.4289 13.9025 10.5241C14.216 10.6193 14.4868 10.8203 14.6687 11.0929C14.8506 11.3654 14.9324 11.6926 14.9001 12.0186C14.8678 12.3447 14.7234 12.6495 14.4915 12.881C14.3602 13.0123 14.2043 13.1165 14.0327 13.1875C13.8611 13.2585 13.6772 13.2951 13.4915 13.295ZM13.4915 11.4625C13.395 11.4624 13.3015 11.4959 13.2269 11.557C13.1523 11.6182 13.1012 11.7034 13.0823 11.798C13.0635 11.8927 13.078 11.9909 13.1235 12.076C13.169 12.1611 13.2426 12.2278 13.3317 12.2647C13.4208 12.3017 13.52 12.3065 13.6124 12.2785C13.7047 12.2505 13.7845 12.1913 13.8381 12.1111C13.8917 12.0309 13.9158 11.9345 13.9063 11.8385C13.8968 11.7425 13.8543 11.6527 13.786 11.5845C13.7474 11.5457 13.7015 11.515 13.651 11.494C13.6004 11.4731 13.5462 11.4624 13.4915 11.4625Z" fill="#95E1D3"/>
            <path d="M19.953 20.503C19.8204 20.503 19.6932 20.4503 19.5995 20.3565L15.7065 16.4635C15.6587 16.4174 15.6206 16.3622 15.5944 16.3012C15.5682 16.2402 15.5544 16.1746 15.5539 16.1082C15.5533 16.0418 15.5659 15.976 15.5911 15.9145C15.6162 15.8531 15.6533 15.7973 15.7003 15.7503C15.7472 15.7034 15.8031 15.6662 15.8645 15.6411C15.926 15.6159 15.9918 15.6033 16.0582 15.6039C16.1246 15.6045 16.1902 15.6182 16.2512 15.6445C16.3122 15.6707 16.3674 15.7087 16.4135 15.7565L20.15 19.491L21.114 19.436L21.17 18.4705L21.089 18.3895L20.271 18.2965C20.1586 18.2838 20.0538 18.2332 19.9738 18.1532C19.8937 18.0732 19.8432 17.9684 19.8305 17.856L19.7625 17.2605L19.168 17.193C19.0555 17.1804 18.9506 17.1299 18.8704 17.0499C18.7903 16.9699 18.7398 16.865 18.727 16.7525L18.634 15.9345L17.434 14.7345C17.3429 14.6402 17.2925 14.5139 17.2937 14.3828C17.2948 14.2517 17.3474 14.1263 17.4401 14.0336C17.5328 13.9409 17.6582 13.8883 17.7893 13.8872C17.9204 13.886 18.0467 13.9364 18.141 14.0275L19.4625 15.35C19.5426 15.4298 19.5931 15.5346 19.6055 15.647L19.6735 16.243L20.2685 16.31C20.3809 16.3227 20.4857 16.3733 20.5657 16.4533C20.6457 16.5333 20.6962 16.6381 20.709 16.7505L20.777 17.347L21.374 17.415C21.4863 17.4277 21.591 17.4781 21.671 17.558L22.034 17.9215C22.0838 17.9714 22.1226 18.0313 22.1477 18.0972C22.1727 18.1631 22.1836 18.2336 22.1795 18.304L22.0845 19.9375C22.0773 20.0599 22.0254 20.1754 21.9387 20.2621C21.852 20.3487 21.7364 20.4005 21.614 20.4075L19.9815 20.5015L19.953 20.503Z" fill="#95E1D3"/>
       
        </symbol>

        <symbol id="house" viewBox="0 0 37 37">
            <path d="M27.1045 10.2567C26.9702 10.1223 26.7837 10.045 26.5937 10.045C26.4036 10.045 26.2172 10.1223 26.0828 10.2567C25.9484 10.3911 25.871 10.5769 25.871 10.7676C25.871 10.9577 25.9483 11.1441 26.0828 11.2786C26.2173 11.413 26.4036 11.4903 26.5937 11.4903C26.7837 11.4903 26.9702 11.413 27.1045 11.2786C27.2389 11.1441 27.3163 10.9577 27.3163 10.7676C27.3163 10.5776 27.239 10.3911 27.1045 10.2567Z" fill="#95E1D3"/>
            <path d="M10.8398 20.3789H5.05859C4.65954 20.3789 4.33594 20.7025 4.33594 21.1016V26.8828C4.33594 27.282 4.65954 27.6055 5.05859 27.6055H10.8398C11.2389 27.6055 11.5625 27.282 11.5625 26.8828V21.1016C11.5625 20.7025 11.239 20.3789 10.8398 20.3789ZM10.1172 26.1602H5.78125V21.8242H10.1172V26.1602Z" fill="#95E1D3"/>
            <path d="M36.5538 15.1586C36.2838 15.0466 35.9729 15.1086 35.7663 15.3152L28.4026 22.6789C28.4025 22.679 28.4023 22.6791 28.4022 22.6792C28.4021 22.6794 28.402 22.6794 28.4019 22.6796L19.8179 31.2636C19.8178 31.2637 19.8177 31.2638 19.8176 31.2639C19.8174 31.2641 19.8174 31.2641 19.8172 31.2643L15.3151 35.7664C15.1085 35.973 15.0467 36.2839 15.1585 36.5539C15.2703 36.824 15.5338 37 15.8261 37H36.2773C36.6763 37 36.9999 36.6765 36.9999 36.2773V15.8262C36.9999 15.534 36.8239 15.2704 36.5538 15.1586ZM35.5546 35.5547H17.5708L20.3286 32.797L21.0184 33.4868C21.1595 33.6279 21.3445 33.6985 21.5294 33.6985C21.7143 33.6985 21.8992 33.6279 22.0404 33.4868C22.3226 33.2046 22.3226 32.747 22.0404 32.4648L21.3505 31.7749L23.1901 29.9353L23.8799 30.6251C24.021 30.7662 24.206 30.8368 24.3909 30.8368C24.5758 30.8368 24.7607 30.7662 24.9019 30.6251C25.1841 30.3429 25.1841 29.8853 24.9019 29.6031L24.212 28.9133L26.0516 27.0737L26.7415 27.7635C26.8826 27.9047 27.0675 27.9752 27.2525 27.9752C27.4374 27.9752 27.6223 27.9047 27.7634 27.7635C28.0456 27.4813 28.0456 27.0237 27.7634 26.7415L27.0736 26.0516L28.9131 24.2121L29.603 24.902C29.7441 25.0431 29.929 25.1136 30.114 25.1136C30.2989 25.1136 30.4838 25.0431 30.6249 24.902C30.9071 24.6198 30.9071 24.1622 30.6249 23.8799L29.9351 23.1901L31.7747 21.3505L32.4645 22.0402C32.6056 22.1814 32.7905 22.2519 32.9755 22.2519C33.1604 22.2519 33.3453 22.1813 33.4864 22.0402C33.7686 21.7581 33.7686 21.3005 33.4864 21.0183L32.7966 20.3284L35.5546 17.5708V35.5547Z" fill="#95E1D3"/>
            <path d="M32.9405 23.8818C32.6705 23.7698 32.3596 23.8318 32.153 24.0384L24.0384 32.1531C23.8318 32.3598 23.7698 32.6706 23.8817 32.9406C23.9936 33.2107 24.2571 33.3867 24.5494 33.3867H32.664C33.063 33.3867 33.3866 33.0632 33.3866 32.6641V24.5494C33.3866 24.2572 33.2106 23.9937 32.9405 23.8818ZM31.9413 31.9414H26.2941L31.9413 26.2941V31.9414Z" fill="#95E1D3"/>
            <path d="M33.4634 10.7866C33.2645 10.5878 32.9683 10.5223 32.7039 10.6191L27.7695 12.4261C27.6709 12.4622 27.5813 12.5194 27.507 12.5936L26.1196 13.9811L17.0599 4.92136C16.9244 4.78586 16.7406 4.7097 16.5489 4.7097C16.3573 4.7097 16.1734 4.78586 16.0379 4.92136L5.13287 15.8264H2.4675L16.5489 1.74493L24.2762 9.47221C24.5585 9.75441 25.0159 9.75441 25.2983 9.47221C25.5805 9.19001 25.5805 8.73243 25.2983 8.45016L17.06 0.211892C16.7777 -0.0703051 16.3203 -0.0703051 16.0379 0.211892L0.211807 16.038C0.00520045 16.2447 -0.0566588 16.5555 0.0551359 16.8256C0.167003 17.0957 0.430483 17.2718 0.722797 17.2718H1.44545V36.2776C1.44545 36.6767 1.76906 37.0002 2.16811 37.0002H13.6573C14.0564 37.0002 14.38 36.6767 14.38 36.2776C14.38 35.8785 14.0564 35.5549 13.6573 35.5549H2.89076V17.2718H5.43219C5.62384 17.2718 5.80761 17.1956 5.94318 17.0601L16.5489 6.45433L25.0975 15.003L14.381 25.7196V19.2229H19.4396C19.8386 19.2229 20.1622 18.8994 20.1622 18.5003C20.1622 18.1011 19.8386 17.7776 19.4396 17.7776H13.6583C13.2593 17.7776 12.9357 18.1011 12.9357 18.5003V26.8831C12.9357 26.9674 12.9508 27.0479 12.9774 27.1231L12.3299 27.7706C11.186 28.9145 11.186 30.7759 12.3299 31.9199C12.902 32.492 13.6532 32.778 14.4046 32.7779C15.1559 32.7779 15.9074 32.4919 16.4793 31.92L22.5736 25.8257C22.8558 25.5435 22.8558 25.0859 22.5736 24.8037C22.2914 24.5215 21.8339 24.5215 21.5515 24.8037L16.9343 29.4209L14.829 27.3156L28.0324 14.1122L30.1377 16.2175L25.0925 21.2628C24.8103 21.545 24.8103 22.0025 25.0925 22.2847C25.3748 22.5669 25.8322 22.5669 26.1146 22.2847L31.6563 16.743C31.7305 16.6687 31.7878 16.5791 31.8238 16.4805L33.6309 11.5462C33.7277 11.282 33.6623 10.9856 33.4634 10.7866ZM15.9124 30.4428L15.4573 30.8979C15.1761 31.1791 14.8024 31.334 14.4047 31.334C14.007 31.334 13.6332 31.1791 13.3521 30.8979C13.0708 30.6167 12.916 30.2429 12.916 29.8453C12.916 29.4477 13.0707 29.0738 13.352 28.7926L13.8071 28.3375L15.9124 30.4428ZM30.8637 14.8993L29.3506 13.3862L31.7381 12.5118L30.8637 14.8993Z" fill="#95E1D3"/>
            <path d="M24.331 23.0455C24.1967 22.9111 24.0102 22.8338 23.8202 22.8338C23.6301 22.8338 23.4437 22.9111 23.3092 23.0455C23.1748 23.1807 23.0975 23.3664 23.0975 23.5565C23.0975 23.7472 23.1748 23.933 23.3092 24.0681C23.4437 24.2025 23.6294 24.2791 23.8202 24.2791C24.0102 24.2791 24.1967 24.2025 24.331 24.0681C24.4654 23.933 24.5428 23.7465 24.5428 23.5565C24.5428 23.3664 24.4655 23.1807 24.331 23.0455Z" fill="#95E1D3"/>
            <path d="M16.5488 10.9122C15.0346 10.9122 13.8027 12.1441 13.8027 13.6582C13.8027 15.1724 15.0346 16.4043 16.5488 16.4043C18.063 16.4043 19.2949 15.1724 19.2949 13.6582C19.2949 12.1441 18.063 10.9122 16.5488 10.9122ZM16.5488 14.959C15.8316 14.959 15.248 14.3756 15.248 13.6582C15.248 12.941 15.8316 12.3575 16.5488 12.3575C17.266 12.3575 17.8496 12.941 17.8496 13.6582C17.8496 14.3755 17.266 14.959 16.5488 14.959Z" fill="#95E1D3"/>
        </symbol>

         <symbol id="digital-marketing" viewBox="0 0 37 37">
            <path d="M13.5667 15.4167V1.85C13.5667 0.801546 12.7651 0 11.7167 0H5.55001C4.50156 0 3.70001 0.801546 3.70001 1.85V15.4167C3.70001 16.4651 4.50156 17.2667 5.55001 17.2667H11.7167C12.7651 17.2667 13.5667 16.4651 13.5667 15.4167ZM12.3333 13.5667H4.93335V3.7H12.3333V13.5667ZM5.55001 1.23333H11.7167C12.0867 1.23333 12.3333 1.47994 12.3333 1.85V2.46667H4.93335V1.85C4.93335 1.47994 5.17995 1.23333 5.55001 1.23333ZM4.93335 15.4167V14.8H12.3333V15.4167C12.3333 15.7867 12.0867 16.0333 11.7167 16.0333H5.55001C5.17995 16.0333 4.93335 15.7867 4.93335 15.4167Z" fill="#95E1D3"/>
            <path d="M11.4701 8.63334L6.78333 4.87161V12.3951L11.4701 8.63334ZM8.01666 7.46173L9.4966 8.63334L8.01666 9.80495V7.46173Z" fill="#95E1D3"/>
            <path d="M17.2667 10.4833C17.2667 6.41327 20.5966 3.08333 24.6667 3.08333C26.3932 3.08333 28.1201 3.7 29.4765 4.80988L28.1201 6.16667C25.7151 4.25494 22.2617 4.625 20.35 7.02994C19.5484 8.01667 19.1167 9.25 19.1167 10.4833H20.35C20.35 8.07839 22.2617 6.16667 24.6667 6.16667C25.5917 6.16667 26.5167 6.475 27.2568 7.02994L25.9 8.38673C25.5299 8.14012 25.0984 8.01667 24.6667 8.01667C23.3099 8.01667 22.2 9.12655 22.2 10.4833H23.4333C23.4333 9.80494 23.9883 9.25 24.6667 9.25C24.7901 9.25 24.8515 9.25 24.975 9.31173L24.2349 10.0515L25.0984 10.9151L25.8383 10.175C25.8383 10.2985 25.9 10.3599 25.9 10.4833C25.9 11.1617 25.3451 11.7167 24.6667 11.7167V12.95C26.0234 12.95 27.1333 11.8401 27.1333 10.4833C27.1333 10.0515 27.0099 9.62006 26.7633 9.25L28.1201 7.89321C29.5383 9.80494 29.1682 12.5182 27.2568 13.9367C26.5167 14.4917 25.5917 14.8 24.6667 14.8V16.0333C27.75 16.0333 30.2167 13.5667 30.2167 10.4833C30.2167 9.25 29.7849 8.01667 28.9833 7.02994L30.2784 5.73488C32.9299 8.81821 32.5599 13.5049 29.4151 16.1568C28.1201 17.2667 26.3932 17.8833 24.6667 17.8833V19.1167C29.4151 19.1167 33.3 15.2932 33.3 10.4833C33.3 8.38673 32.5599 6.41327 31.2034 4.80988L32.3133 3.7H35.15V2.46667H32.6833V0H31.45V2.83673L30.3401 3.94661C26.7015 0.863273 21.275 1.23333 18.1299 4.80988C16.7734 6.41327 16.0333 8.38673 16.0333 10.4833H17.2667Z" fill="#95E1D3"/>
            <path d="M30.2166 22.8167H24.7901L13.0734 18.5H11.7166C10.6682 18.5 9.86664 19.3015 9.86664 20.35V32.6833C9.86664 33.7318 10.6682 34.5333 11.7166 34.5333H13.0734L24.7901 29.6H26.5166V35.15C26.5166 36.1985 27.3182 37 28.3666 37C29.4151 37 30.2166 36.1985 30.2166 35.15V29.6C31.2651 29.6 32.0666 28.7985 32.0666 27.75V24.6667C32.0666 23.6182 31.2651 22.8167 30.2166 22.8167ZM13.5666 19.9799L24.05 23.8651V28.5515L13.5666 32.9917V19.9799ZM11.1 32.6833V20.35C11.1 19.9799 11.3466 19.7333 11.7166 19.7333H12.3333V33.3H11.7166C11.3466 33.3 11.1 33.0534 11.1 32.6833ZM28.9833 35.15C28.9833 35.5201 28.7367 35.7667 28.3666 35.7667C27.9966 35.7667 27.75 35.5201 27.75 35.15V29.6H28.9833V35.15ZM30.8333 27.75C30.8333 28.1201 30.5867 28.3667 30.2166 28.3667H25.2833V24.05H30.2166C30.5867 24.05 30.8333 24.2966 30.8333 24.6667V27.75Z" fill="#95E1D3"/>
            <path d="M6.16669 25.2833H8.63335V26.5167H6.16669V25.2833Z" fill="#95E1D3"/>
            <path d="M6.35638 20.7953L7.22839 19.923L9.06002 21.7547L8.18772 22.6267L6.35638 20.7953Z" fill="#95E1D3"/>
            <path d="M6.35638 31.0047L8.18772 29.173L9.05972 30.0453L7.22839 31.8767L6.35638 31.0047Z" fill="#95E1D3"/>
            <path d="M16.0333 11.7784V12.3951C16.0333 16.0951 19.0549 19.1167 22.7549 19.1167H23.4333V11.7167H16.65L16.0333 11.7784ZM22.2 12.95V17.8833C19.6099 17.6367 17.575 15.5401 17.3284 12.95H22.2Z" fill="#95E1D3"/>
            <path d="M14.8 1.85001H18.5V3.08334H14.8V1.85001Z" fill="#95E1D3"/>
            <path d="M34.5333 12.95V24.6667C34.5333 25.0367 34.2867 25.2833 33.9167 25.2833H33.3V26.5167H33.9167C34.9651 26.5167 35.7667 25.7151 35.7667 24.6667V12.95H34.5333Z" fill="#95E1D3"/>
            <path d="M2.46667 24.6667V12.95H1.23334V24.6667C1.23334 25.7151 2.03488 26.5167 3.08334 26.5167H4.93334V25.2833H3.08334C2.71328 25.2833 2.46667 25.0367 2.46667 24.6667Z" fill="#95E1D3"/>
        </symbol>

        <symbol id="line" viewBox="0 0 60 4">
            <rect width="60" height="4" fill="#F38181"/>
        </symbol>
        
    </defs>

</svg>