<svg ria-hiddaen="true" style="position: absolute; width: 0; height: 0; overflow: hidden;" version="1.1" xmlns="http://www.w3.org/2000/svg" xmlns:xlink="http://www.w3.org/1999/xlink">
    <defs>
        <symbol id="order-svg" viewBox="0 0 219 183">

            <path d="M73.6405 0.0681024H71.7741C70.5691 -0.0227008 69.361 -0.0227008 68.156 0.0681024C60.8338 0.842146 38.379 5.78119 37.4314 5.96549C36.4838 6.37094 32.3776 8.84052 5.44325 24.9849C3.45473 26.2731 1.86241 28.3839 0.923382 30.9766C-0.0156419 33.5693 -0.246596 36.4926 0.267821 39.2745C0.782237 42.0563 2.012 44.5344 3.75857 46.3088C5.50514 48.0833 7.66659 49.0503 9.89399 49.0539C11.4099 49.0579 12.9052 48.6034 14.2587 47.7271L39.9008 31.3616L68.0699 31.6933L78.924 36.6693L58.8237 40.3552C56.341 40.7764 54.0746 42.389 52.4807 44.8686C50.8868 47.3481 50.0836 50.5106 50.2328 53.7196C50.382 56.9286 51.4725 59.946 53.2848 62.1646C55.0972 64.3832 57.4969 65.6383 60.0011 65.6775H61.1784L97.9905 59.3008C99.3135 59.1094 100.652 59.1966 101.953 59.5588L114.157 62.9867C119.025 64.3487 124.044 64.5735 128.974 63.6503L132.563 62.9867V58.0845L128.399 58.8585C123.977 59.6809 119.476 59.4937 115.104 58.3056L102.929 54.8778C101.204 54.3949 99.4285 54.2829 97.6746 54.546L60.8338 60.9595C60.0359 61.0665 59.2293 60.97 58.4605 60.6755C57.6917 60.381 56.9759 59.8944 56.3541 59.2436C55.7324 58.5927 55.217 57.7905 54.8375 56.8832C54.4581 55.9758 54.2222 54.9811 54.1432 53.9563C54.0515 52.9416 54.1171 51.9135 54.3363 50.9314C54.5555 49.9494 54.924 49.0329 55.4205 48.2345C55.9169 47.4361 56.5317 46.7718 57.2291 46.2798C57.9266 45.7879 58.693 45.478 59.4842 45.368L87.1077 40.1709C87.524 40.0988 87.9093 39.8486 88.2011 39.4606C88.4929 39.0727 88.6742 38.5697 88.7157 38.0331C88.7606 37.4931 88.6634 36.9493 88.4396 36.4884C88.2159 36.0275 87.8784 35.676 87.481 35.4898L69.161 26.9016C68.9513 26.8665 68.739 26.8665 68.5293 26.9016L39.585 26.5699C39.2868 26.5763 38.9931 26.6641 38.7235 26.8278L12.6793 43.4514C11.2158 44.3398 9.53839 44.4509 8.01143 43.7607C6.48446 43.0706 5.23136 41.6348 4.52437 39.7655C3.8217 37.9346 3.70791 35.8225 4.20749 33.8848C4.70708 31.9472 5.78005 30.3393 7.19489 29.408L38.4077 10.7573C40.8484 10.2412 61.7813 5.67066 68.5867 4.97033C69.6288 4.87899 70.6746 4.87899 71.7167 4.97033H73.6692C80.4172 5.15463 103.906 6.40782 122.312 14.6274H122.628L132.965 16.9127V11.9736L123.374 9.87256C104.997 1.72667 82.542 0.289222 73.7266 0.0312072L73.6405 0.0681024Z" fill="white"/>
            <path d="M214.457 67.1884H160.703V7.51327H214.457V67.1884ZM216.352 2.64783H158.923C158.42 2.64783 157.938 2.9042 157.583 3.36042C157.227 3.81664 157.028 4.43536 157.028 5.08055V69.6211C157.028 70.2663 157.227 70.885 157.583 71.3412C157.938 71.7975 158.42 72.0538 158.923 72.0538H216.352C216.853 72.0443 217.33 71.7849 217.684 71.3308C218.038 70.8766 218.24 70.2633 218.247 69.6211V5.08055C218.24 4.43832 218.038 3.82506 217.684 3.37088C217.33 2.91671 216.853 2.65734 216.352 2.64783Z" fill="white"/>
            <path d="M138.564 6.22314C138.069 6.22314 137.595 6.47563 137.244 6.92494C136.894 7.37425 136.698 7.98355 136.698 8.61897L136.411 66.0088C136.405 66.3245 136.451 66.6381 136.545 66.93C136.639 67.2218 136.779 67.4854 136.956 67.7043C137.125 67.9367 137.33 68.1222 137.557 68.249C137.784 68.3758 138.029 68.4413 138.277 68.4415H153.123V63.5761H140.201L140.459 11.0517H153.123V6.33372H138.593L138.564 6.22314Z" fill="white"/>
            <path d="M13.2248 177.471C15.449 173.807 18.3374 170.897 21.6383 168.994C22.0137 168.775 22.3323 168.422 22.5562 167.978C22.7802 167.534 22.9001 167.016 22.9018 166.487V159.115H107.696V166.487C107.695 167.012 107.811 167.527 108.029 167.971C108.248 168.415 108.561 168.769 108.931 168.994C112.24 170.878 115.132 173.792 117.344 177.471H13.2248ZM112.003 164.792V156.388C111.996 155.657 111.767 154.96 111.364 154.443C110.962 153.927 110.419 153.633 109.85 153.623H20.8343C20.2654 153.633 19.722 153.927 19.3197 154.443C18.9174 154.96 18.6881 155.657 18.6807 156.388V164.792C15.6082 166.856 8.37207 172.569 8.37207 180.236C8.37951 180.966 8.60879 181.663 9.01107 182.18C9.41335 182.696 9.95681 182.99 10.5257 183H120.216C120.8 182.971 121.352 182.651 121.754 182.107C122.156 181.563 122.377 180.838 122.369 180.088C122.369 172.716 115.162 166.856 112.089 164.792H112.003Z" fill="white"/>
            <path d="M65.0548 78.9099H65.5429C67.2341 78.9217 68.8749 79.6511 70.2096 80.9844C71.5444 82.3178 72.4982 84.1802 72.9226 86.2817H57.6751C58.0951 84.1771 59.0477 82.3111 60.3834 80.9768C61.7191 79.6425 63.3623 78.9154 65.0548 78.9099ZM75.3633 91.6631C75.9473 91.6343 76.4993 91.3138 76.9017 90.7698C77.304 90.2257 77.5249 89.5014 77.5169 88.7513C77.5169 86.7329 77.2072 84.7342 76.6055 82.8694C76.0037 81.0045 75.1217 79.3101 74.0098 77.8829C72.8979 76.4556 71.5779 75.3234 70.1252 74.5509C68.6724 73.7785 67.1153 73.381 65.5429 73.381H65.0548C63.4737 73.3858 61.9089 73.7915 60.4504 74.5749C58.9918 75.3583 57.6682 76.5038 56.5556 77.9458C55.4429 79.3877 54.5632 81.0976 53.9669 82.9772C53.3706 84.8569 53.0694 86.8692 53.0808 88.8987C53.0808 89.6319 53.3076 90.335 53.7115 90.8535C54.1154 91.3719 54.6632 91.6631 55.2344 91.6631H75.3633Z" fill="white"/>
            <path d="M64.9974 100.215H65.4282C83.6332 100.215 104.825 111.604 105.973 143.451H24.5959C25.7732 111.862 46.8497 100.362 64.9974 100.215ZM20.3461 146.215C20.3423 146.579 20.3954 146.941 20.5022 147.279C20.6091 147.616 20.7676 147.923 20.9683 148.181C21.1691 148.438 21.408 148.642 21.671 148.779C21.9341 148.916 22.2159 148.984 22.4997 148.979H108.27C108.842 148.979 109.389 148.688 109.793 148.17C110.197 147.651 110.424 146.948 110.424 146.215C110.424 108.176 86.2175 94.6121 65.5143 94.6121H65.0548C42.801 94.7964 20.3461 110.83 20.3461 146.215Z" fill="white"/>
            <path d="M29.5635 140.833H29.9655C30.4685 140.836 30.9564 140.613 31.3445 140.202C31.7326 139.791 31.9965 139.219 32.0904 138.585C33.0615 132.869 35.0931 127.539 38.0126 123.047C40.9321 118.555 44.6532 115.034 48.8597 112.783C49.1192 112.633 49.3525 112.417 49.5457 112.149C49.7389 111.881 49.8881 111.565 49.9845 111.221C50.081 110.877 50.1226 110.512 50.107 110.147C50.0913 109.783 50.0187 109.425 49.8935 109.097C49.6449 108.438 49.2052 107.93 48.6685 107.682C48.1318 107.434 47.5408 107.466 47.022 107.77C42.1828 110.36 37.9088 114.426 34.5712 119.616C31.2336 124.806 28.933 130.963 27.8693 137.553C27.811 137.909 27.8087 138.276 27.8628 138.634C27.9168 138.991 28.026 139.331 28.1838 139.633C28.3417 139.935 28.5451 140.194 28.7821 140.394C29.019 140.593 29.2847 140.73 29.5635 140.796V140.833Z" fill="white"/>
            <path d="M103.619 164.018H26.8643C26.2931 164.018 25.7454 164.309 25.3415 164.827C24.9377 165.346 24.7107 166.049 24.7107 166.782C24.7107 167.515 24.9377 168.218 25.3415 168.737C25.7454 169.255 26.2931 169.547 26.8643 169.547H103.619C104.19 169.547 104.737 169.255 105.141 168.737C105.545 168.218 105.772 167.515 105.772 166.782C105.772 166.049 105.545 165.346 105.141 164.827C104.737 164.309 104.19 164.018 103.619 164.018Z" fill="white"/>

        </symbol>

        <symbol id="food-svg" viewBox="0 0 219 183">

                    
            <path d="M55.1111 26.7725C67.4548 20.2368 81.068 16.8488 94.8653 16.8787C111.067 16.8232 126.979 21.4284 140.907 30.2035C154.835 38.9787 166.257 51.5952 173.957 66.7091L12.8912 151.167C3.45161 128.666 2.57363 103.169 10.4405 79.9982C18.3073 56.8273 34.311 37.773 55.1111 26.8126V26.7725ZM10.2358 159.211L181.657 69.4037L180.367 66.7091C168.818 43.2083 149.047 25.438 125.289 17.2055C101.532 8.9731 75.6783 10.9334 53.2677 22.6664C30.857 34.3994 13.6719 54.9718 5.39444 79.9759C-2.88303 104.98 -1.59448 132.427 8.98401 156.436L10.2358 159.131V159.211Z" fill="white"/>
            <path d="M18.7709 144.571C19.1099 144.586 19.4474 144.517 19.7571 144.37C20.1265 144.238 20.4658 144.025 20.7535 143.746C21.0411 143.467 21.2708 143.128 21.4278 142.749C21.5848 142.371 21.6658 141.962 21.6655 141.549C21.6652 141.135 21.5837 140.727 21.4262 140.348C16.3619 125.016 15.4837 108.479 18.8928 92.6414C22.302 76.8033 29.8598 62.3076 40.6964 50.8227C41.0359 50.5603 41.3164 50.2215 41.5177 49.8306C41.719 49.4397 41.8362 49.0063 41.8607 48.5616C41.8853 48.117 41.8167 47.6721 41.6599 47.2589C41.503 46.8457 41.2618 46.4745 40.9535 46.1718C40.6453 45.8692 40.2776 45.6428 39.877 45.5087C39.4764 45.3746 39.0527 45.3363 38.6365 45.3964C38.2202 45.4565 37.8217 45.6137 37.4695 45.8565C37.1173 46.0994 36.8203 46.4218 36.5996 46.8009C25.014 59.0975 16.9435 74.6164 13.3191 91.5669C9.69465 108.518 10.6641 126.209 16.1155 142.601C16.3163 143.177 16.6781 143.674 17.1526 144.026C17.6271 144.378 18.1917 144.568 18.7709 144.571Z" fill="white"/>
            <path d="M211.928 189.576H8.37704C7.7323 189.494 7.13833 189.164 6.70741 188.649C6.27649 188.134 6.03853 187.469 6.03853 186.781C6.03853 186.092 6.27649 185.428 6.70741 184.913C7.13833 184.398 7.7323 184.068 8.37704 183.986H211.928C212.573 184.068 213.167 184.398 213.598 184.913C214.029 185.428 214.267 186.092 214.267 186.781C214.267 187.469 214.029 188.134 213.598 188.649C213.167 189.164 212.573 189.494 211.928 189.576ZM211.928 179.562H8.37704C6.65896 179.698 5.05293 180.517 3.88092 181.856C2.70892 183.195 2.05762 184.954 2.05762 186.781C2.05762 188.608 2.70892 190.367 3.88092 191.705C5.05293 193.044 6.65896 193.864 8.37704 194H211.928C213.646 193.864 215.252 193.044 216.424 191.705C217.596 190.367 218.247 188.608 218.247 186.781C218.247 184.954 217.596 183.195 216.424 181.856C215.252 180.517 213.646 179.698 211.928 179.562Z" fill="white"/>
            <path d="M193.606 132.305L189.813 164.238C189.584 165.976 188.771 167.568 187.524 168.721C186.276 169.873 184.678 170.51 183.023 170.512H164.587C162.932 170.51 161.334 169.873 160.086 168.721C158.838 167.568 158.026 165.976 157.797 164.238L154.004 132.305H193.606ZM153.473 164.801C153.829 167.609 155.132 170.186 157.14 172.056C159.147 173.926 161.725 174.963 164.397 174.976H182.833C185.508 174.971 188.09 173.937 190.099 172.066C192.108 170.194 193.409 167.613 193.758 164.801L198.348 127.881H149.034L153.624 164.801H153.473Z" fill="white"/>
            <path d="M199.106 163.152C198.806 163.096 198.513 163.001 198.234 162.871L197.931 165.525C197.931 166.169 197.665 166.732 197.551 167.335L198.386 167.536C198.866 167.576 199.347 167.576 199.827 167.536C205.707 167.536 211.207 160.98 212.535 152.615C213.427 147.508 212.421 142.233 209.728 137.895C209.019 136.831 208.117 135.928 207.075 135.237C206.033 134.547 204.871 134.083 203.659 133.873C203.066 133.813 202.469 133.813 201.876 133.873L201.307 138.418C201.634 138.379 201.965 138.379 202.293 138.418H203.052C204.399 138.728 205.581 139.578 206.352 140.791C208.379 144.184 209.111 148.268 208.4 152.213C207.452 158.648 203.014 163.997 199.106 163.313V163.152Z" fill="white"/>
            <path d="M174.146 86.3757C173.803 86.2084 173.432 86.1153 173.054 86.1017C172.677 86.0881 172.301 86.1545 171.947 86.2967C171.594 86.439 171.272 86.6543 170.998 86.9303C170.724 87.2062 170.505 87.5372 170.353 87.904C165.839 98.7227 168.153 103.71 170.353 108.013C171.54 110.108 172.167 112.507 172.167 114.951C172.167 117.395 171.54 119.793 170.353 121.888C170.197 122.257 170.113 122.655 170.106 123.059C170.098 123.463 170.167 123.865 170.309 124.24C170.45 124.615 170.661 124.956 170.93 125.243C171.198 125.53 171.518 125.757 171.87 125.91C172.219 126.063 172.593 126.145 172.97 126.152C173.536 126.158 174.091 125.986 174.564 125.656C175.037 125.327 175.407 124.855 175.626 124.302C177.111 121.397 177.866 118.137 177.82 114.834C177.773 111.53 176.926 108.295 175.36 105.439C173.577 101.618 172.174 98.5619 175.588 90.3573C175.746 89.9935 175.833 89.5998 175.846 89.1996C175.859 88.7993 175.796 88.4003 175.662 88.026C175.528 87.6516 175.325 87.3093 175.065 87.019C174.804 86.7288 174.492 86.4965 174.146 86.3355V86.3757Z" fill="white"/>
            <path d="M162.046 86.3757C161.702 86.2084 161.331 86.1153 160.954 86.1017C160.576 86.0881 160.2 86.1545 159.847 86.2967C159.494 86.439 159.171 86.6543 158.897 86.9303C158.623 87.2062 158.404 87.5372 158.252 87.904C153.738 98.7227 156.052 103.71 158.252 108.013C159.439 110.108 160.066 112.507 160.066 114.951C160.066 117.395 159.439 119.793 158.252 121.888C158.097 122.257 158.013 122.655 158.005 123.059C157.997 123.463 158.066 123.865 158.208 124.24C158.349 124.615 158.561 124.956 158.829 125.243C159.097 125.53 159.417 125.757 159.77 125.91C160.119 126.063 160.492 126.145 160.87 126.152C161.447 126.169 162.016 125.997 162.498 125.658C162.98 125.32 163.352 124.832 163.563 124.261C165.061 121.363 165.827 118.103 165.787 114.798C165.747 111.494 164.903 108.256 163.335 105.399C161.552 101.578 160.149 98.5216 163.563 90.3171C163.721 89.9532 163.808 89.5597 163.821 89.1594C163.834 88.7592 163.772 88.3602 163.637 87.9858C163.503 87.6115 163.3 87.2691 163.04 86.9789C162.779 86.6887 162.467 86.4562 162.121 86.2953L162.046 86.3757Z" fill="white"/>
            <path d="M182.53 108.174C183.705 110.274 184.325 112.67 184.325 115.112C184.325 117.553 183.705 119.95 182.53 122.049C182.356 122.418 182.256 122.821 182.235 123.233C182.215 123.645 182.274 124.057 182.409 124.443C182.545 124.83 182.753 125.183 183.023 125.481C183.292 125.778 183.616 126.014 183.974 126.174C184.333 126.334 184.718 126.414 185.107 126.41C185.496 126.405 185.88 126.316 186.235 126.148C186.59 125.98 186.909 125.737 187.172 125.433C187.435 125.129 187.637 124.772 187.764 124.382C189.26 121.481 190.022 118.219 189.975 114.914C189.928 111.608 189.075 108.372 187.499 105.52C185.716 101.699 184.312 98.6423 187.764 90.4378C188.07 89.6963 188.086 88.8565 187.809 88.1026C187.531 87.3486 186.983 86.7421 186.285 86.4159C185.942 86.2487 185.571 86.1555 185.193 86.142C184.815 86.1284 184.439 86.1948 184.086 86.337C183.733 86.4793 183.41 86.6946 183.136 86.9706C182.863 87.2465 182.643 87.5775 182.492 87.9442C178.015 98.7629 180.329 103.75 182.492 108.053L182.53 108.174Z" fill="white"/>
            <path d="M107.914 171.438V175.138H112.125V171.84L142.472 163.515C143.163 163.307 143.761 162.843 144.157 162.207C144.553 161.572 144.72 160.806 144.628 160.051C144.536 159.295 144.191 158.6 143.656 158.091C143.121 157.583 142.432 157.295 141.713 157.281H24.1195C23.404 157.304 22.7201 157.598 22.1915 158.11C21.6628 158.621 21.3243 159.317 21.2372 160.07C21.1502 160.823 21.3202 161.585 21.7167 162.216C22.1131 162.848 22.7098 163.309 23.3987 163.515L53.442 171.759V175.138H57.6527V171.116C57.6465 170.329 57.3989 169.566 56.9471 168.942C56.4954 168.318 55.8642 167.867 55.149 167.657L33.5649 161.624H132.192L110.532 167.536C109.704 167.772 108.976 168.298 108.467 169.028C107.957 169.758 107.695 170.65 107.725 171.558L107.914 171.438Z" fill="white"/>
            <path d="M102.338 149.719L109.508 152.856H120.47L103.931 145.617C90.3919 139.806 75.2511 139.806 61.7115 145.617L44.4518 153.017H55.6042L63.1909 149.719C75.7228 144.352 89.7305 144.352 102.262 149.719H102.338Z" fill="white"/>


        </symbol>

        <symbol id="delivery-svg" viewBox="0 0 219 183">

                    
            <path d="M154.237 179.211H5.06996V23.1488C5.0782 18.0481 7.21525 13.1585 11.0127 9.55179C14.8102 5.94503 19.9583 3.91532 25.3287 3.90749H25.765C31.1354 3.91532 36.2836 5.94503 40.081 9.55179C43.8785 13.1585 46.0155 18.0481 46.0238 23.1488V37.7426H113.345V23.1488C113.353 18.0481 115.49 13.1585 119.288 9.55179C123.085 5.94503 128.233 3.91532 133.604 3.90749H134.04C139.411 3.91532 144.559 5.94503 148.356 9.55179C152.154 13.1585 154.291 18.0481 154.299 23.1488V179.181L154.237 179.211ZM133.978 0.029631H133.541C127.085 0.0374423 120.895 2.47479 116.327 6.80794C111.759 11.1411 109.185 17.0169 109.169 23.1488V33.8352H49.9508V23.1488C49.9508 17.0094 47.383 11.1214 42.8122 6.78016C38.2414 2.43892 32.0421 0 25.578 0H25.1417C18.7018 0.039054 12.5392 2.49426 7.9971 6.83044C3.455 11.1666 0.901648 17.0322 0.893555 23.1488V183H158.351V23.1488C158.351 17.0094 155.783 11.1214 151.212 6.78016C146.641 2.43892 140.442 0 133.978 0V0.029631Z" fill="white"/>
            <path d="M14.7943 153.398H46.3979V166.689H14.7943V153.398ZM10.6802 170.597H50.512V149.461H10.6802V170.597Z" fill="white"/>
            <path d="M113.283 153.398H144.886V166.689H113.283V153.398ZM109.169 170.597H149V149.461H109.169V170.597Z" fill="white"/>
            <path d="M32.3102 37.9498H18.5654V21.8759C18.6829 20.2207 19.4579 18.6697 20.7338 17.5368C22.0097 16.4039 23.6912 15.7736 25.4378 15.7736C27.1845 15.7736 28.8659 16.4039 30.1418 17.5368C31.4177 18.6697 32.1928 20.2207 32.3102 21.8759V37.9498ZM36.4243 21.8759C36.0769 19.3615 34.7787 17.0529 32.7717 15.3804C30.7647 13.708 28.1857 12.7858 25.5157 12.7858C22.8457 12.7858 20.2668 13.708 18.2598 15.3804C16.2527 17.0529 14.9545 19.3615 14.6072 21.8759V41.8573H36.4243V21.8759Z" fill="white"/>
            <path d="M140.554 37.9498H126.809V21.8759C126.927 20.2207 127.702 18.6697 128.978 17.5368C130.254 16.4039 131.935 15.7736 133.682 15.7736C135.428 15.7736 137.11 16.4039 138.386 17.5368C139.662 18.6697 140.437 20.2207 140.554 21.8759V37.9498ZM144.668 21.8759C144.321 19.3615 143.023 17.0529 141.016 15.3804C139.009 13.708 136.43 12.7858 133.76 12.7858C131.09 12.7858 128.511 13.708 126.504 15.3804C124.497 17.0529 123.198 19.3615 122.851 21.8759V41.8573H144.668V21.8759Z" fill="white"/>
            <path d="M32.3102 84.8693H18.5654V68.7954C18.6829 67.1402 19.4579 65.5892 20.7338 64.4563C22.0097 63.3234 23.6912 62.6932 25.4378 62.6932C27.1845 62.6932 28.8659 63.3234 30.1418 64.4563C31.4177 65.5892 32.1928 67.1402 32.3102 68.7954V84.8693ZM36.4243 68.7954C36.0769 66.281 34.7787 63.9724 32.7717 62.3C30.7647 60.6275 28.1857 59.7053 25.5157 59.7053C22.8457 59.7053 20.2668 60.6275 18.2598 62.3C16.2527 63.9724 14.9545 66.281 14.6072 68.7954V88.7768H36.4243V68.7954Z" fill="white"/>
            <path d="M68.4017 84.8689H54.6258V68.795C54.6258 67.0599 55.3515 65.3959 56.6432 64.1691C57.935 62.9422 59.687 62.253 61.5138 62.253C63.3406 62.253 65.0925 62.9422 66.3843 64.1691C67.676 65.3959 68.4017 67.0599 68.4017 68.795V84.8689ZM72.5158 68.795C72.5158 66.0236 71.3567 63.3657 69.2934 61.4061C67.2301 59.4464 64.4317 58.3455 61.5138 58.3455C58.5958 58.3455 55.7974 59.4464 53.7341 61.4061C51.6709 63.3657 50.5117 66.0236 50.5117 68.795V88.7764H72.5158V68.795Z" fill="white"/>
            <path d="M104.494 84.8689H90.7176V68.795C90.7176 67.0599 91.4433 65.3959 92.735 64.1691C94.0268 62.9422 95.7788 62.253 97.6056 62.253C99.4324 62.253 101.184 62.9422 102.476 64.1691C103.768 65.3959 104.494 67.0599 104.494 68.795V84.8689ZM108.608 68.795C108.608 66.0236 107.448 63.3657 105.385 61.4061C103.322 59.4464 100.523 58.3455 97.6056 58.3455C94.6876 58.3455 91.8892 59.4464 89.8259 61.4061C87.7627 63.3657 86.6035 66.0236 86.6035 68.795V88.7764H108.608V68.795Z" fill="white"/>
            <path d="M140.554 84.8693H126.809V68.7954C126.927 67.1402 127.702 65.5892 128.978 64.4563C130.254 63.3234 131.935 62.6932 133.682 62.6932C135.428 62.6932 137.11 63.3234 138.386 64.4563C139.662 65.5892 140.437 67.1402 140.554 68.7954V84.8693ZM144.668 68.7954C144.321 66.281 143.023 63.9724 141.016 62.3C139.009 60.6275 136.43 59.7053 133.76 59.7053C131.09 59.7053 128.511 60.6275 126.504 62.3C124.497 63.9724 123.198 66.281 122.851 68.7954V88.7768H144.668V68.7954Z" fill="white"/>
            <path d="M18.5652 108.995C18.6826 107.34 19.4577 105.789 20.7336 104.656C22.0095 103.523 23.6909 102.893 25.4376 102.893C27.1842 102.893 28.8656 103.523 30.1415 104.656C31.4174 105.789 32.1925 107.34 32.3099 108.995V125.039H18.5652V108.995ZM14.4199 128.887H36.237V108.995C35.8897 106.48 34.5914 104.172 32.5844 102.499C30.5774 100.827 27.9985 99.9048 25.3285 99.9048C22.6585 99.9048 20.0796 100.827 18.0725 102.499C16.0655 104.172 14.7673 106.48 14.4199 108.995V128.947V128.887Z" fill="white"/>
            <path d="M54.6258 108.995C54.6258 107.26 55.3515 105.596 56.6432 104.369C57.935 103.142 59.687 102.453 61.5138 102.453C63.3406 102.453 65.0925 103.142 66.3843 104.369C67.676 105.596 68.4017 107.26 68.4017 108.995V125.039H54.6258V108.995ZM50.5117 128.947H72.5158V108.995C72.5158 106.224 71.3567 103.566 69.2934 101.606C67.2301 99.6463 64.4317 98.5454 61.5138 98.5454C58.5958 98.5454 55.7974 99.6463 53.7341 101.606C51.6709 103.566 50.5117 106.224 50.5117 108.995V128.947Z" fill="white"/>
            <path d="M90.7176 108.995C90.7176 107.26 91.4433 105.596 92.735 104.369C94.0268 103.142 95.7788 102.453 97.6056 102.453C99.4324 102.453 101.184 103.142 102.476 104.369C103.768 105.596 104.494 107.26 104.494 108.995V125.039H90.7176V108.995ZM86.6035 128.947H108.608V108.995C108.608 106.224 107.448 103.566 105.385 101.606C103.322 99.6463 100.523 98.5454 97.6056 98.5454C94.6876 98.5454 91.8892 99.6463 89.8259 101.606C87.7627 103.566 86.6035 106.224 86.6035 108.995V128.947Z" fill="white"/>
            <path d="M126.809 108.995C126.927 107.34 127.702 105.789 128.978 104.656C130.254 103.523 131.935 102.893 133.682 102.893C135.428 102.893 137.11 103.523 138.386 104.656C139.662 105.789 140.437 107.34 140.554 108.995V125.039H126.809V108.995ZM122.695 128.947H144.512V108.995C144.165 106.48 142.867 104.172 140.86 102.499C138.853 100.827 136.274 99.9048 133.604 99.9048C130.934 99.9048 128.355 100.827 126.348 102.499C124.341 104.172 123.043 106.48 122.695 108.995V128.947Z" fill="white"/>
            <path d="M60.3296 175.304H64.4437V152.007H78.2819V175.304H82.396V152.007H96.2343V175.304H100.348V148.099H60.3296V175.304Z" fill="white"/>
            <path d="M9.12183 52.0404H150.123V48.1329H9.12183V52.0404Z" fill="white"/>
            <path d="M105.086 22.468C105.125 21.1582 105.261 19.8525 105.491 18.5605H53.7534C53.984 19.8525 54.1193 21.1582 54.1586 22.468H105.086Z" fill="white"/>
            <path d="M9.12183 143.215H150.123V139.307H9.12183V143.215Z" fill="white"/>

        </symbol>
    </defs>
</svg>